<svg width="174" height="27" viewBox="0 0 174 27" fill="none" xmlns="http://www.w3.org/2000/svg">
<path d="M16.3413 1.25589C16.7369 0.65971 17.6123 0.65971 18.0079 1.25589L21.5375 6.57561C21.6703 6.77588 21.8709 6.92159 22.1024 6.98608L28.2525 8.69903C28.9417 8.891 29.2122 9.72358 28.7675 10.284L24.7988 15.2847C24.6494 15.473 24.5728 15.7088 24.583 15.9489L24.8544 22.3273C24.8848 23.0421 24.1766 23.5566 23.5061 23.3068L17.5238 21.0777C17.2986 20.9938 17.0507 20.9938 16.8254 21.0777L10.8431 23.3068C10.1726 23.5566 9.46442 23.0421 9.49483 22.3273L9.76619 15.9489C9.7764 15.7088 9.6998 15.473 9.55039 15.2847L5.58174 10.284C5.13697 9.72358 5.40749 8.891 6.09673 8.69903L12.2468 6.98608C12.4783 6.92159 12.6789 6.77588 12.8117 6.57561L16.3413 1.25589Z" fill="#F1B175"/>
<path d="M86.1582 1.31241C86.5517 0.698908 87.4482 0.698909 87.8417 1.31241L91.2133 6.56928C91.3443 6.7735 91.5451 6.92314 91.7782 6.99031L97.7029 8.6974C98.38 8.89249 98.6484 9.70792 98.2195 10.267L94.3668 15.289C94.2242 15.4748 94.1514 15.7048 94.161 15.9388L94.4231 22.311C94.4527 23.0301 93.7358 23.544 93.0643 23.2852L87.3596 21.0863C87.1282 20.997 86.8718 20.997 86.6403 21.0863L80.9357 23.2852C80.2642 23.544 79.5473 23.0301 79.5769 22.311L79.8389 15.9388C79.8485 15.7048 79.7757 15.4748 79.6332 15.289L75.7805 10.267C75.3516 9.70792 75.6199 8.89249 76.297 8.6974L82.2217 6.99031C82.4549 6.92314 82.6556 6.7735 82.7866 6.56928L86.1582 1.31241Z" fill="#F1B175"/>
<path d="M51.026 1.31241C51.4195 0.698908 52.316 0.698909 52.7095 1.31241L56.0811 6.56928C56.2121 6.7735 56.4129 6.92314 56.646 6.99031L62.5707 8.6974C63.2478 8.89249 63.5162 9.70792 63.0873 10.267L59.2346 15.289C59.092 15.4748 59.0192 15.7048 59.0288 15.9388L59.2909 22.311C59.3205 23.0301 58.6036 23.544 57.9321 23.2852L52.2274 21.0863C51.996 20.997 51.7396 20.997 51.5081 21.0863L45.8035 23.2852C45.132 23.544 44.4151 23.0301 44.4447 22.311L44.7067 15.9388C44.7163 15.7048 44.6435 15.4748 44.501 15.289L40.6483 10.267C40.2194 9.70792 40.4877 8.89249 41.1648 8.6974L47.0895 6.99031C47.3227 6.92314 47.5234 6.7735 47.6544 6.56928L51.026 1.31241Z" fill="#F1B175"/>
<path d="M121.291 1.31241C121.684 0.698908 122.581 0.698909 122.974 1.31241L126.346 6.56928C126.477 6.7735 126.677 6.92314 126.911 6.99031L132.835 8.6974C133.512 8.89249 133.781 9.70792 133.352 10.267L129.499 15.289C129.357 15.4748 129.284 15.7048 129.293 15.9388L129.555 22.311C129.585 23.0301 128.868 23.544 128.197 23.2852L122.492 21.0863C122.26 20.997 122.004 20.997 121.773 21.0863L116.068 23.2852C115.396 23.544 114.68 23.0301 114.709 22.311L114.971 15.9388C114.981 15.7048 114.908 15.4748 114.766 15.289L110.913 10.267C110.484 9.70792 110.752 8.89249 111.429 8.6974L117.354 6.99031C117.587 6.92314 117.788 6.7735 117.919 6.56928L121.291 1.31241Z" fill="#F1B175"/>
<path d="M155.992 1.25589C156.388 0.65971 157.263 0.65971 157.659 1.25589L161.188 6.57561C161.321 6.77588 161.522 6.92159 161.753 6.98608L167.903 8.69903C168.592 8.891 168.863 9.72358 168.418 10.284L164.45 15.2847C164.3 15.473 164.224 15.7088 164.234 15.9489L164.505 22.3273C164.536 23.0421 163.827 23.5566 163.157 23.3068L157.175 21.0777C156.949 20.9938 156.701 20.9938 156.476 21.0777L150.494 23.3068C149.823 23.5566 149.115 23.0421 149.146 22.3273L149.417 15.9489C149.427 15.7088 149.351 15.473 149.201 15.2847L145.232 10.284C144.788 9.72358 145.058 8.891 145.747 8.69903L151.898 6.98608C152.129 6.92159 152.33 6.77588 152.463 6.57561L155.992 1.25589Z" fill="#F1B175"/>
<path d="M0 0H17V25H0V0Z" fill="#D9D9D9"/>
<rect x="157" width="17" height="25" fill="#D9D9D9"/>
</svg>
